<?xml version="1.0" encoding="UTF-8"?>
<svg width="434px" height="103px" viewBox="0 0 434 103" version="1.1" xmlns="http://www.w3.org/2000/svg" xmlns:xlink="http://www.w3.org/1999/xlink">
    <!-- Generator: Sketch 56.3 (81716) - https://sketch.com -->
    <title>Group 3</title>
    <desc>Created with Sketch.</desc>
    <g id="Page-1" stroke="none" stroke-width="1" fill="none" fill-rule="evenodd">
        <g id="Dribble" transform="translate(-139.000000, -373.000000)">
            <g id="Group-3" transform="translate(139.000000, 373.000000)">
                <text id="EMOTIVE" font-family="Inter-ExtraBold, Inter" font-size="62" font-style="italic" font-weight="600" letter-spacing="3.053621" fill="#2D1F72">
                    <tspan x="131" y="73">EMOTIVE</tspan>
                </text>
                <g id="Group-2">
                    <rect id="Rectangle" fill="#FACC48" x="0" y="0" width="35" height="35"></rect>
                    <rect id="Rectangle-Copy" fill="#F9D777" x="34" y="0" width="35" height="35"></rect>
                    <rect id="Rectangle-Copy-2" fill="#F9DE90" x="68" y="0" width="35" height="35"></rect>
                    <rect id="Rectangle-Copy-3" fill="#F59CD4" x="68" y="34" width="35" height="35"></rect>
                    <rect id="Rectangle-Copy-5" fill="#E55FB4" x="0" y="34" width="35" height="35"></rect>
                    <rect id="Rectangle-Copy-6" fill="#7346BC" x="0" y="68" width="35" height="35"></rect>
                    <rect id="Rectangle-Copy-8" fill="#C3A6F2" x="68" y="68" width="35" height="35"></rect>
                    <rect id="Rectangle-Copy-4" fill="#F88CD1" x="34" y="34" width="35" height="35"></rect>
                    <rect id="Rectangle-Copy-7" fill="#9C6CEA" x="34" y="68" width="35" height="35"></rect>
                    <rect id="Rectangle" fill-opacity="0.382102273" fill="#000000" opacity="0.356050037" style="mix-blend-mode: soft-light;" x="0" y="0" width="103" height="103"></rect>
                </g>
                <g id="Group" transform="translate(26.000000, 62.000000)" fill="#FFFFFF">
                    <path d="M7.46069873e-14,0 L51.9622464,0 C51.4367426,13.8959756 40.0056748,25 25.9811232,25 C11.9565716,25 0.525503846,13.8959756 2.68502604e-07,7.10006025e-06 Z" id="Combined-Shape"></path>
                </g>
            </g>
        </g>
    </g>
</svg>