<?xml version="1.0" encoding="UTF-8"?>
<svg viewBox="0 0 100 100" version="1.1" xmlns="http://www.w3.org/2000/svg" xmlns:xlink="http://www.w3.org/1999/xlink">
    <!-- Generator: Sketch 56.3 (81716) - https://sketch.com -->
    <title>Group 4</title>
    <desc>Created with Sketch.</desc>
    <g id="Page-1" stroke="none" stroke-width="1" fill="none" fill-rule="evenodd">
        <g id="Dribble" transform="translate(-141.000000, -244.000000)">
            <g id="Group-4" transform="translate(141.000000, 244.000000)">
                <g id="Group-2-Copy" transform="translate(-0.000000, 0.000000)">
                    <rect id="Rectangle" fill="#FACC48" x="0" y="0" width="33.9805825" height="33.9805825"></rect>
                    <rect id="Rectangle-Copy" fill="#F9D777" x="33.0097087" y="0" width="33.9805825" height="33.9805825"></rect>
                    <rect id="Rectangle-Copy-2" fill="#F9DE90" x="66.0194175" y="0" width="33.9805825" height="33.9805825"></rect>
                    <rect id="Rectangle-Copy-3" fill="#F59CD4" x="66.0194175" y="33.0097087" width="33.9805825" height="33.9805825"></rect>
                    <rect id="Rectangle-Copy-5" fill="#E55FB4" x="0" y="33.0097087" width="33.9805825" height="33.9805825"></rect>
                    <rect id="Rectangle-Copy-6" fill="#7346BC" x="0" y="66.0194175" width="33.9805825" height="33.9805825"></rect>
                    <rect id="Rectangle-Copy-8" fill="#C3A6F2" x="66.0194175" y="66.0194175" width="33.9805825" height="33.9805825"></rect>
                    <rect id="Rectangle-Copy-4" fill="#F88CD1" x="33.0097087" y="33.0097087" width="33.9805825" height="33.9805825"></rect>
                    <rect id="Rectangle-Copy-7" fill="#9C6CEA" x="33.0097087" y="66.0194175" width="33.9805825" height="33.9805825"></rect>
                    <rect id="Rectangle" fill-opacity="0.382102273" fill="#000000" opacity="0.356050037" style="mix-blend-mode: soft-light;" x="0" y="0" width="100" height="100"></rect>
                </g>
                <g id="Group-Copy" transform="translate(25.242718, 60.194175)"></g>
                <path d="M25.2427184,60.1941748 L75.6915014,60.1941748 C75.1813035,73.6854132 64.0831795,84.4660194 50.4671099,84.4660194 C36.8510404,84.4660194 25.7529164,73.6854132 25.2427187,60.1941817 Z" id="Combined-Shape" fill="#FFFFFF"></path>
            </g>
        </g>
    </g>
</svg>